<?xml version="1.0" encoding="UTF-8" standalone="no"?>
<!-- Created with Inkscape (http://www.inkscape.org/) -->

<svg
   xmlns:dc="http://purl.org/dc/elements/1.1/"
   xmlns:cc="http://creativecommons.org/ns#"
   xmlns:rdf="http://www.w3.org/1999/02/22-rdf-syntax-ns#"
   xmlns:svg="http://www.w3.org/2000/svg"
   xmlns="http://www.w3.org/2000/svg"
   xmlns:sodipodi="http://sodipodi.sourceforge.net/DTD/sodipodi-0.dtd"
   xmlns:inkscape="http://www.inkscape.org/namespaces/inkscape"
   version="1.1"
   id="svg2"
   xml:space="preserve"
   width="1038"
   height="468"
   viewBox="0 0 1038 468"
   sodipodi:docname="Logo.svg"
   inkscape:version="0.92.0 r15299"><metadata
     id="metadata8"><rdf:RDF><cc:Work
         rdf:about=""><dc:format>image/svg+xml</dc:format><dc:type
           rdf:resource="http://purl.org/dc/dcmitype/StillImage" /><dc:title></dc:title></cc:Work></rdf:RDF></metadata><defs
     id="defs6" /><sodipodi:namedview
     pagecolor="#ffffff"
     bordercolor="#666666"
     borderopacity="1"
     objecttolerance="10"
     gridtolerance="10"
     guidetolerance="10"
     inkscape:pageopacity="0"
     inkscape:pageshadow="2"
     inkscape:window-width="1278"
     inkscape:window-height="1400"
     id="namedview4"
     showgrid="false"
     inkscape:zoom="0.70710678"
     inkscape:cx="248.72344"
     inkscape:cy="261.11348"
     inkscape:window-x="1920"
     inkscape:window-y="18"
     inkscape:window-maximized="0"
     inkscape:current-layer="g10" /><g
     id="g10"
     inkscape:groupmode="layer"
     inkscape:label="ink_ext_XXXXXX"
     transform="matrix(1.3333333,0,0,-1.3333333,0,468)"><g
       id="g12"
       transform="matrix(0.1,0,0,0.1,72.09801,63.86471)"><path
         d="m 4198.48,1498.75 v -167.52 c 0,-97.5 -40,-165 -152.51,-165 -105.01,0 -151,55.5 -149.51,132.5 v 200.02 l -49,8.5 v 17 h 147.01 v -17 l -49.01,-8.5 v -181.52 c -1.5,-74.5 28,-123.5 104.52,-123.5 25,0 65,9.5 89,39 19.5,23.5 19.5,67.5 19.5,94.5 v 171.52 l -49,8.5 v 17 h 138.01 v -17 l -49.01,-8.5"
         style="fill:#231f20;fill-opacity:1;fill-rule:nonzero;stroke:none"
         id="path14"
         inkscape:connector-curvature="0" /><path
         d="m 4334.12,1198.73 42.5,-8.51 v -15 h -127.51 v 15 l 42.51,8.51 v 176.51 c -13.51,6.5 -29.01,9 -43.51,9 v 15 c 24,2.99 54,11 74.5,20 l 11.51,-3.5 v -37.5 c 24,17.5 47.5,34.5 53.5,37 5,2 13.5,4 18.5,4 66.5,0 85.51,-29 85.51,-78.51 v -142 l 42.5,-8.51 v -15 h -127.51 v 15 l 42.51,8.51 v 102 c 0,41 1.49,85.5 -50.51,85.5 -23.51,0 -45.5,-9.49 -64.5,-22.99 v -164.51"
         style="fill:#231f20;fill-opacity:1;fill-rule:nonzero;stroke:none"
         id="path16"
         inkscape:connector-curvature="0" /><path
         d="m 4628.91,1478.24 c -12.5,0 -24.5,11 -24.5,23.5 0,13.01 10.5,26.51 24.5,26.51 14.5,0 25.5,-12.5 25.5,-26.51 0,-13.5 -12.5,-23.5 -25.5,-23.5 z m -67.51,-303.02 v 15 l 49.01,8.51 v 176.51 c -13.5,6.5 -29.01,9 -43.5,9 v 15 c 23.99,2.99 53.99,11 74.5,20 l 11.5,-3.5 v -217.01 l 49,-8.51 v -15 H 4561.4"
         style="fill:#231f20;fill-opacity:1;fill-rule:nonzero;stroke:none"
         id="path18"
         inkscape:connector-curvature="0" /><path
         d="m 4823.5,1413.74 v -15 l -41,-8.5 61,-160.01 62.01,160.01 -40.51,8.5 v 15 h 99.51 v -15 l -31.5,-8.5 -89.51,-220.51 h -20 l -89.5,220.51 -34,8.5 v 15 h 123.5"
         style="fill:#231f20;fill-opacity:1;fill-rule:nonzero;stroke:none"
         id="path20"
         inkscape:connector-curvature="0" /><path
         d="m 5135.91,1337.23 c 2.01,37.01 -14.5,67.01 -55.01,67.01 -36.49,0 -59,-34.01 -61.5,-67.01 z m -117.51,-15 c 0,-65.5 25.5,-119.51 90.51,-119.51 30.5,0 54.5,22.01 74.01,42.51 l 10.99,-11 -58.49,-59.01 c -3.51,-2 -21.51,-5.49 -47.02,-5.49 -62,0 -111,44.5 -111,125.5 0,79.5 49.5,124.01 111,124.01 52.02,0 91.01,-35 91.01,-77.01 0,-19 -5,-20 -20,-20 H 5018.4"
         style="fill:#231f20;fill-opacity:1;fill-rule:nonzero;stroke:none"
         id="path22"
         inkscape:connector-curvature="0" /><path
         d="m 5293.55,1415.74 v -62.5 l 9,13.99 c 11,20.51 31.51,54.01 58,54.01 10.51,0 16.01,-4 24.01,-10 l -6.5,-39.01 -6.5,-1.49 c -5.5,3.99 -17,9.5 -23.51,9.5 -28.99,0 -54.5,-50.51 -54.5,-59.51 v -122 l 52.51,-8.51 v -15 h -141.02 v 15 l 46.01,8.51 v 176.51 c -13.51,6.5 -29,9 -43.51,9 v 15 c 24.01,2.99 54.01,11 74.52,20 l 11.49,-3.5"
         style="fill:#231f20;fill-opacity:1;fill-rule:nonzero;stroke:none"
         id="path24"
         inkscape:connector-curvature="0" /><path
         d="M 5564.51,1342.73 H 5547 c 0,32 -17,58.51 -52,58.51 -25.5,0 -47.5,-12 -47.5,-39.5 0,-55.01 135,-25.01 135,-113.01 0,-53 -46,-79 -94.51,-79 -25.49,0 -51.49,5 -74.5,16.5 l -7,69 h 19.5 c 1.01,-38.5 24.5,-67.51 64.5,-67.51 27.51,0 54.51,13.01 54.51,43.01 0,64.5 -133,27 -133,118.5 0,44.01 40.5,70.01 82,70.01 27,0 50.5,-6.5 71.5,-23.5 l -0.99,-53.01"
         style="fill:#231f20;fill-opacity:1;fill-rule:nonzero;stroke:none"
         id="path26"
         inkscape:connector-curvature="0" /><path
         d="m 5673.54,1478.24 c -12.5,0 -24.5,11 -24.5,23.5 0,13.01 10.5,26.51 24.5,26.51 14.5,0 25.5,-12.5 25.5,-26.51 0,-13.5 -12.5,-23.5 -25.5,-23.5 z m -67.51,-303.02 v 15 l 49,8.51 v 176.51 c -13.49,6.5 -29,9 -43.49,9 v 15 c 23.99,2.99 53.99,11 74.5,20 l 11.49,-3.5 v -217.01 l 49.01,-8.51 v -15 h -140.51"
         style="fill:#231f20;fill-opacity:1;fill-rule:nonzero;stroke:none"
         id="path28"
         inkscape:connector-curvature="0" /><path
         d="m 5754.44,1390.24 c 32,13 57,45.5 66.5,80 h 11.99 v -70 h 75.01 v -25 h -75.01 v -121.51 c -0.99,-35.5 11.01,-52 40.01,-52.5 15,0 27.01,10.5 38.5,21.5 l 7,-12 -30,-30.51 c -10.5,-10.49 -26.5,-8.99 -40,-8.99 -28.5,0 -58.01,14.5 -58.01,62.5 v 141.51 h -35.99 v 15"
         style="fill:#231f20;fill-opacity:1;fill-rule:nonzero;stroke:none"
         id="path30"
         inkscape:connector-curvature="0" /><path
         d="m 6097.93,1461.74 c -13.99,0 -26.5,11.5 -26.5,25.5 0,14.01 12.51,26.01 26.5,26.01 14.01,0 25,-12.51 25,-26.01 0,-13.49 -11.49,-25.5 -25,-25.5 z m -10.99,-169.01 c -46.01,-23 -93.01,-30.5 -93.01,-65.5 0,-18 16.5,-29.51 36.5,-29.51 15.5,0 40.5,12.5 56.51,22.01 z m -76.01,220.52 c 14.01,0 26,-12 26,-26.01 0,-14 -11.99,-25.5 -26,-25.5 -14,0 -25.5,11.5 -25.5,25.5 0,14.01 11.5,26.01 25.5,26.01 z m 76.01,-170.52 c 0,38.5 -12.5,50.01 -35,50.01 -32.51,0 -44.01,-28.01 -42.51,-54.01 0.5,-6 -4,-5.5 -8.5,-6.5 l -30,-6 -3.5,2 2,31.5 c 0.5,8.51 21.5,20 27.5,23.51 l 59,33.5 c 5.5,3 12,2.5 18,2.5 32.01,0 55.51,-17.5 55.51,-61.51 v -146 l 41,-8.5 v -12 c -25.5,-4.51 -55.01,-12.01 -82.01,-21.5 l -3.49,4 1.5,32 c -25.01,-19.01 -52.51,-36 -85.01,-36 -36.5,0 -52.5,30 -52.5,49.5 0,41.5 32,52.5 54.5,59.5 30,9.5 58,20 83.51,27.5 v 36.5"
         style="fill:#231f20;fill-opacity:1;fill-rule:nonzero;stroke:none"
         id="path32"
         inkscape:connector-curvature="0" /><path
         d="m 6179.04,1390.24 c 32,13 57,45.5 66.5,80 h 11.99 v -70 h 75.01 v -25 h -75.01 v -121.51 c -0.99,-35.5 11.01,-52 40.01,-52.5 15,0 27.01,10.5 38.5,21.5 l 7,-12 -30,-30.51 c -10.5,-10.49 -26.5,-8.99 -40,-8.99 -28.5,0 -58.01,14.5 -58.01,62.5 v 141.51 h -35.99 v 15"
         style="fill:#231f20;fill-opacity:1;fill-rule:nonzero;stroke:none"
         id="path34"
         inkscape:connector-curvature="0" /><path
         d="m 3968.46,795.738 h 106.52 l -55.51,134.5 z m -10,-25.008 -37,-104 49,-8.5 v -17 h -125.01 v 17 l 42.51,8.5 130.51,331.02 h 25.5 l 137.51,-331.02 42.5,-8.5 v -17 h -144.5 v 17 l 48.99,8.5 -43,104 h -127.01"
         style="fill:#231f20;fill-opacity:1;fill-rule:nonzero;stroke:none"
         id="path36"
         inkscape:connector-curvature="0" /><path
         d="m 4422.77,856.238 -46.51,8.5 v 15 h 89.01 V 677.23 l 43.5,-6 v -12.5 c -27.99,-5 -55,-13.511 -81.5,-22.011 l -4.5,4.511 v 37 c -31,-19 -53.51,-42.5 -85.51,-42.5 -44.5,0 -73.5,19.489 -73.5,66.5 v 154.008 l -42.51,8.5 v 15 h 85.01 V 713.23 c 0,-28.5 19,-44.5 49.51,-44.5 27.5,0 44,10.5 67,24 v 163.508"
         style="fill:#231f20;fill-opacity:1;fill-rule:nonzero;stroke:none"
         id="path38"
         inkscape:connector-curvature="0" /><path
         d="m 4584.56,818.738 c 0,-30.508 15.49,-71.008 51.5,-71.008 28.5,0 41.5,27.5 41,52.008 -0.5,28.5 -12.5,70.5 -48.5,70.5 -29.5,0 -44,-25 -44,-51.5 z m 132,-212.508 c 0,35 -52.5,42.5 -81,42.5 -30.01,0 -76.51,-7.5 -76.51,-47.5 0,-42.011 41.5,-52.011 75.51,-52.011 33.5,0 82,17.5 82,57.011 z m -127,49.5 c -23.51,9 -47.01,32 -36.51,59 l 45.51,21.5 c -32.51,8.5 -53.51,35.5 -53.51,69.508 0,53 37.01,79.5 88.01,79.5 19,0 38,-6 56,-11.5 h 13.01 l 50.49,2.5 c -0.49,2 13,-21 -6.5,-28.5 -6,-2.5 -28.5,2 -43,5.5 9.5,-13 13.5,-26 13.5,-41.5 0,-53.008 -47.5,-82.508 -96.51,-79.008 l -9.5,-5 -20,-12.5 c 1.51,-32.5 53.51,-32.5 75.51,-33.5 41.5,-2 87.51,-13 87.51,-64.011 0,-63.5 -82.01,-83.5 -131.51,-83.5 -43,0 -100.01,15 -100.01,67.5 0,32.5 11,36 24.5,39.011 l 43.01,15"
         style="fill:#231f20;fill-opacity:1;fill-rule:nonzero;stroke:none"
         id="path40"
         inkscape:connector-curvature="0" /><path
         d="m 4935.97,808.738 h -17.51 c 0,32 -16.99,58.5 -52,58.5 -25.5,0 -47.5,-12 -47.5,-39.5 0,-55.008 135.01,-25.008 135.01,-113.008 0,-53 -46.01,-79 -94.51,-79 -25.5,0 -51.5,5 -74.5,16.5 l -7.01,69 h 19.51 c 1,-38.5 24.5,-67.5 64.5,-67.5 27.51,0 54.51,13 54.51,43 0,64.508 -133.01,27 -133.01,118.5 0,44.008 40.5,70.008 82,70.008 27.01,0 50.5,-6.5 71.51,-23.5 l -1,-53"
         style="fill:#231f20;fill-opacity:1;fill-rule:nonzero;stroke:none"
         id="path42"
         inkscape:connector-curvature="0" /><path
         d="m 5009.35,634.219 -9,4.011 c 2.5,34 6,65.5 6,98 v 253.02 c -13.5,6.5 -29,9 -43.5,9 v 15 c 24,3 54,11 74.5,20 l 11.5,-3.5 V 708.73 c 0,-33 19.01,-58 53.51,-58 52.5,0 70,49.5 70,105 0,53.5 -18.5,96.508 -78.01,96.508 -11,0 -22.5,-2 -33,-5.5 l -5,11 40.5,25 c 8.01,1 15.51,2.5 23.51,2.5 61.5,0 94.5,-44.5 94.5,-122.008 0,-68.5 -36.5,-127.5 -127.5,-127.5 -18.51,0 -39.01,7.5 -55.01,16.989 l -23,-18.5"
         style="fill:#231f20;fill-opacity:1;fill-rule:nonzero;stroke:none"
         id="path44"
         inkscape:connector-curvature="0" /><path
         d="m 5433.8,856.238 -46.5,8.5 v 15 h 89 V 677.23 l 43.51,-6 v -12.5 c -28,-5 -55,-13.511 -81.5,-22.011 l -4.51,4.511 v 37 c -30.99,-19 -53.5,-42.5 -85.5,-42.5 -44.51,0 -73.5,19.489 -73.5,66.5 v 154.008 l -42.51,8.5 v 15 h 85.01 V 713.23 c 0,-28.5 18.99,-44.5 49.5,-44.5 27.5,0 44.01,10.5 67,24 v 163.508"
         style="fill:#231f20;fill-opacity:1;fill-rule:nonzero;stroke:none"
         id="path46"
         inkscape:connector-curvature="0" /><path
         d="m 5634.4,881.738 v -62.5 l 9,14 c 11,20.5 31.51,54 58,54 10.51,0 16.01,-4 24.01,-10 l -6.5,-39 -6.5,-1.5 c -5.5,4 -17,9.5 -23.51,9.5 -28.99,0 -54.5,-50.5 -54.5,-59.508 v -122 l 52.51,-8.5 v -15 h -141.02 v 15 l 46.01,8.5 v 176.508 c -13.51,6.5 -29,9 -43.51,9 v 15 c 24.01,3 54.01,11 74.52,20 l 11.49,-3.5"
         style="fill:#231f20;fill-opacity:1;fill-rule:nonzero;stroke:none"
         id="path48"
         inkscape:connector-curvature="0" /><path
         d="m 5794.15,818.738 c 0,-30.508 15.49,-71.008 51.5,-71.008 28.5,0 41.5,27.5 41,52.008 -0.5,28.5 -12.5,70.5 -48.5,70.5 -29.5,0 -44,-25 -44,-51.5 z m 132,-212.508 c 0,35 -52.5,42.5 -81,42.5 -30.01,0 -76.51,-7.5 -76.51,-47.5 0,-42.011 41.5,-52.011 75.51,-52.011 33.5,0 82,17.5 82,57.011 z m -127,49.5 c -23.51,9 -47.01,32 -36.51,59 l 45.51,21.5 c -32.51,8.5 -53.51,35.5 -53.51,69.508 0,53 37.01,79.5 88.01,79.5 19,0 38,-6 56,-11.5 h 13.01 l 50.49,2.5 c -0.49,2 13,-21 -6.5,-28.5 -6,-2.5 -28.5,2 -43,5.5 9.5,-13 13.5,-26 13.5,-41.5 0,-53.008 -47.5,-82.508 -96.51,-79.008 l -9.5,-5 -20,-12.5 c 1.51,-32.5 53.51,-32.5 75.51,-33.5 41.5,-2 87.51,-13 87.51,-64.011 0,-63.5 -82.01,-83.5 -131.51,-83.5 -43,0 -100.01,15 -100.01,67.5 0,32.5 11,36 24.5,39.011 l 43.01,15"
         style="fill:#231f20;fill-opacity:1;fill-rule:nonzero;stroke:none"
         id="path50"
         inkscape:connector-curvature="0" /><path
         d="M 4198.48,430.75 V 263.238 c 0,-97.508 -40,-165.0075 -152.51,-165.0075 -105.01,0 -151,55.4995 -149.51,132.4995 v 200.02 l -49,8.5 v 17 h 147.01 v -17 l -49.01,-8.5 V 249.23 c -1.5,-74.5 28,-123.5 104.52,-123.5 25,0 65,9.5 89,39 19.5,23.5 19.5,67.508 19.5,94.5 v 171.52 l -49,8.5 v 17 h 138.01 v -17 l -49.01,-8.5"
         style="fill:#231f20;fill-opacity:1;fill-rule:nonzero;stroke:none"
         id="path52"
         inkscape:connector-curvature="0" /><path
         d="m 4334.12,130.73 42.5,-8.5 v -15 h -127.51 v 15 l 42.51,8.5 v 176.508 c -13.51,6.5 -29.01,9 -43.51,9 v 15 c 24,3 54,11 74.5,20 l 11.51,-3.5 v -37.5 c 24,17.5 47.5,34.5 53.5,37 5,2 13.5,4 18.5,4 66.5,0 85.51,-29 85.51,-78.508 v -142 l 42.5,-8.5 v -15 h -127.51 v 15 l 42.51,8.5 v 102 c 0,41.008 1.49,85.508 -50.51,85.508 -23.51,0 -45.5,-9.5 -64.5,-23 V 130.73"
         style="fill:#231f20;fill-opacity:1;fill-rule:nonzero;stroke:none"
         id="path54"
         inkscape:connector-curvature="0" /><path
         d="m 4628.91,410.238 c -12.5,0 -24.5,11 -24.5,23.5 0,13.012 10.5,26.512 24.5,26.512 14.5,0 25.5,-12.5 25.5,-26.512 0,-13.5 -12.5,-23.5 -25.5,-23.5 z M 4561.4,107.23 v 15 l 49.01,8.5 v 176.508 c -13.5,6.5 -29.01,9 -43.5,9 v 15 c 23.99,3 53.99,11 74.5,20 l 11.5,-3.5 V 130.73 l 49,-8.5 v -15 H 4561.4"
         style="fill:#231f20;fill-opacity:1;fill-rule:nonzero;stroke:none"
         id="path56"
         inkscape:connector-curvature="0" /><path
         d="m 4823.5,345.738 v -15 l -41,-8.5 61,-160.008 62.01,160.008 -40.51,8.5 v 15 h 99.51 v -15 l -31.5,-8.5 -89.51,-220.508 h -20 l -89.5,220.508 -34,8.5 v 15 h 123.5"
         style="fill:#231f20;fill-opacity:1;fill-rule:nonzero;stroke:none"
         id="path58"
         inkscape:connector-curvature="0" /><path
         d="m 5135.91,269.238 c 2.01,37 -14.5,67 -55.01,67 -36.49,0 -59,-34 -61.5,-67 z M 5018.4,254.23 c 0,-65.5 25.5,-119.5 90.51,-119.5 30.5,0 54.5,22 74.01,42.5 l 10.99,-11 -58.49,-59 c -3.51,-2.011 -21.51,-5.5 -47.02,-5.5 -62,0 -111,44.5 -111,125.5 0,79.508 49.5,124.008 111,124.008 52.02,0 91.01,-35 91.01,-77 0,-19.008 -5,-20.008 -20,-20.008 H 5018.4"
         style="fill:#231f20;fill-opacity:1;fill-rule:nonzero;stroke:none"
         id="path60"
         inkscape:connector-curvature="0" /><path
         d="m 5293.55,347.738 v -62.5 l 9,14 c 11,20.5 31.51,54 58,54 10.51,0 16.01,-4 24.01,-10 l -6.5,-39 -6.5,-1.5 c -5.5,4 -17,9.5 -23.51,9.5 -28.99,0 -54.5,-50.5 -54.5,-59.508 v -122 l 52.51,-8.5 v -15 h -141.02 v 15 l 46.01,8.5 v 176.508 c -13.51,6.5 -29,9 -43.51,9 v 15 c 24.01,3 54.01,11 74.52,20 l 11.49,-3.5"
         style="fill:#231f20;fill-opacity:1;fill-rule:nonzero;stroke:none"
         id="path62"
         inkscape:connector-curvature="0" /><path
         d="M 5564.51,274.738 H 5547 c 0,32 -17,58.5 -52,58.5 -25.5,0 -47.5,-12 -47.5,-39.5 0,-55 135,-25 135,-113.008 0,-53 -46,-79 -94.51,-79 -25.49,0 -51.49,5 -74.5,16.5 l -7,69 h 19.5 c 1.01,-38.5 24.5,-67.5 64.5,-67.5 27.51,0 54.51,13 54.51,43 0,64.5 -133,27 -133,118.508 0,44 40.5,70 82,70 27,0 50.5,-6.5 71.5,-23.5 l -0.99,-53"
         style="fill:#231f20;fill-opacity:1;fill-rule:nonzero;stroke:none"
         id="path64"
         inkscape:connector-curvature="0" /><path
         d="m 5673.54,410.238 c -12.5,0 -24.5,11 -24.5,23.5 0,13.012 10.5,26.512 24.5,26.512 14.5,0 25.5,-12.5 25.5,-26.512 0,-13.5 -12.5,-23.5 -25.5,-23.5 z M 5606.03,107.23 v 15 l 49,8.5 v 176.508 c -13.49,6.5 -29,9 -43.49,9 v 15 c 23.99,3 53.99,11 74.5,20 l 11.49,-3.5 V 130.73 l 49.01,-8.5 v -15 h -140.51"
         style="fill:#231f20;fill-opacity:1;fill-rule:nonzero;stroke:none"
         id="path66"
         inkscape:connector-curvature="0" /><path
         d="m 5754.44,322.238 c 32,13 57,45.5 66.5,80.012 h 11.99 v -70.012 h 75.01 v -25 h -75.01 V 185.73 c -0.99,-35.5 11.01,-52 40.01,-52.5 15,0 27.01,10.5 38.5,21.5 l 7,-12 -30,-30.5 c -10.5,-10.5 -26.5,-9 -40,-9 -28.5,0 -58.01,14.5 -58.01,62.5 v 141.508 h -35.99 v 15"
         style="fill:#231f20;fill-opacity:1;fill-rule:nonzero;stroke:none"
         id="path68"
         inkscape:connector-curvature="0" /><path
         d="m 6059.84,345.738 v -15 l -41.51,-8.5 69.01,-157.008 c 21,51.5 41.5,103.508 55,157.008 l -40,8.5 v 15 h 101 v -15 l -32.5,-8.5 C 6130.34,210.23 6090.34,95.7305 6013.83,3.71875 c -7.5,-9 -30.5,0.5 -42,6 v 5.00005 c 39,24.5 67.5,63.5 91.5,102.5112 l -93,205.008 -34,8.5 v 15 h 123.51"
         style="fill:#231f20;fill-opacity:1;fill-rule:nonzero;stroke:none"
         id="path70"
         inkscape:connector-curvature="0" /><path
         d="M 2024.41,1524.04 V 106.941 h -331.4 l -524.28,850.289 -9.03,15.008 V 632.289 c 0,-134.867 -18.54,-281.508 -94.4,-370.84 C 947.301,116.48 729.863,87.8398 576.48,87.8398 1.67969,87.8398 0,445.18 0,644.102 V 1524.04 H 342.18 V 798.512 c 0,-250.524 5.062,-317.922 38.765,-368.492 45.504,-67.438 124.746,-99.461 207.336,-99.461 214.055,0 242.719,173.632 242.719,295 v 205.05 l -0.008,693.431 H 1162.27 L 1698.56,635.551 V 1524.04 Z M 2684.84,392 v 575.988 l 257.3,-417.066 z m 879.65,-285.059 -879.64,1417.099 -0.02,-4.27 v 4.27 H 2352.75 V 106.941 h 332.09 v 0.188 l 0.12,-0.188 384.63,237.559 146.66,-237.559 z M 2444.42,1985.16 c 0,136.71 -110.84,247.54 -247.55,247.54 -136.71,0 -247.59,-110.83 -247.59,-247.54 0,-136.77 110.88,-247.6 247.59,-247.6 136.71,0 247.55,110.83 247.55,247.6"
         style="fill:#231f20;fill-opacity:1;fill-rule:nonzero;stroke:none"
         id="path72"
         inkscape:connector-curvature="0" /></g></g></svg>